<?xml version="1.0" encoding="UTF-8" standalone="no"?>
<svg
   xmlns:dc="http://purl.org/dc/elements/1.1/"
   xmlns:cc="http://creativecommons.org/ns#"
   xmlns:rdf="http://www.w3.org/1999/02/22-rdf-syntax-ns#"
   xmlns:svg="http://www.w3.org/2000/svg"
   xmlns="http://www.w3.org/2000/svg"
   xmlns:sodipodi="http://sodipodi.sourceforge.net/DTD/sodipodi-0.dtd"
   xmlns:inkscape="http://www.inkscape.org/namespaces/inkscape"
   version="1.1"
   x="0px"
   y="0px"
   viewBox="0 0 100 125"
   enable-background="new 0 0 100 100"
   xml:space="preserve"
   id="svg2"
   inkscape:version="0.91 r13725"
   sodipodi:docname="elegant.svg"><metadata
     id="metadata22"><rdf:RDF><cc:Work
         rdf:about=""><dc:format>image/svg+xml</dc:format><dc:type
           rdf:resource="http://purl.org/dc/dcmitype/StillImage" /></cc:Work></rdf:RDF></metadata><defs
     id="defs20" /><sodipodi:namedview
     pagecolor="#ffffff"
     bordercolor="#666666"
     borderopacity="1"
     objecttolerance="10"
     gridtolerance="10"
     guidetolerance="10"
     inkscape:pageopacity="0"
     inkscape:pageshadow="2"
     inkscape:window-width="673"
     inkscape:window-height="480"
     id="namedview18"
     showgrid="false"
     inkscape:zoom="1.888"
     inkscape:cx="70.39195"
     inkscape:cy="62.5"
     inkscape:window-x="206"
     inkscape:window-y="192"
     inkscape:window-maximized="0"
     inkscape:current-layer="svg2" /><g
     id="g4"
     transform="matrix(0.34870193,0,0,0.36035453,32.378866,84.618686)"><path
       d="m 71.798,35.024 c -0.472,-0.542 -1.447,-0.986 -2.167,-0.986 l -44.956,0 c -0.719,0 -1.693,0.444 -2.164,0.986 L 8.361,51.309 C 7.89,51.852 7.899,52.733 8.38,53.266 l 37.896,41.877 c 0.481,0.534 1.271,0.534 1.754,0 L 85.925,53.266 c 0.482,-0.533 0.492,-1.414 0.021,-1.957 L 71.798,35.024 Z m -19.537,2.909 14.504,0 c 0.72,0 0.997,0.5 0.616,1.111 l -6.269,10.067 c -0.382,0.611 -1.051,0.646 -1.491,0.076 L 51.751,38.97 c -0.439,-0.571 -0.21,-1.037 0.51,-1.037 z m -3.203,1.372 7.989,10.371 c 0.441,0.571 0.212,1.036 -0.509,1.036 l -17.368,0 c -0.72,0 -0.931,-0.452 -0.469,-1.004 l 8.721,-10.436 c 0.46,-0.553 1.198,-0.537 1.636,0.033 z m -20.803,-1.372 15.934,0 c 0.718,0 0.929,0.452 0.467,1.004 l -8.673,10.377 c -0.461,0.553 -1.164,0.511 -1.56,-0.087 L 27.668,39.023 c -0.395,-0.599 -0.132,-1.09 0.587,-1.09 z m -13.357,11.792 8.82,-10.152 c 0.472,-0.542 1.183,-0.497 1.58,0.104 l 6.584,9.946 c 0.396,0.598 0.133,1.09 -0.587,1.09 l -15.948,0 C 14.629,50.712 14.426,50.267 14.898,49.725 Z M 42.23,84.865 15.02,54.796 c -0.483,-0.53 -0.289,-0.967 0.43,-0.967 l 17.55,0 c 0.718,0 1.462,0.566 1.655,1.26 l 8.105,29.485 c 0.19,0.694 -0.049,0.823 -0.53,0.291 z m 5.106,1.778 c -0.24,0.68 -0.59,0.665 -0.78,-0.027 L 37.885,55.09 c -0.191,-0.693 0.242,-1.26 0.961,-1.26 l 18.764,0 c 0.718,0 1.111,0.553 0.872,1.23 L 47.336,86.643 Z M 79.287,54.796 51.624,85.366 c -0.48,0.532 -0.68,0.414 -0.44,-0.265 L 61.787,55.06 c 0.238,-0.678 1.022,-1.23 1.743,-1.23 l 15.329,0 c 0.717,-10e-4 0.912,0.436 0.428,0.966 z m -0.327,-4.084 -14.783,0 c -0.719,0 -0.997,-0.5 -0.615,-1.11 l 5.88,-9.444 c 0.378,-0.61 1.076,-0.667 1.548,-0.124 l 8.42,9.691 c 0.471,0.542 0.268,0.987 -0.45,0.987 z"
       id="path6"
       inkscape:connector-curvature="0"
       style="fill:#000000" /><path
       d="m 15.195,27.238 c 0.337,-0.407 0.281,-1.009 -0.125,-1.347 L 4.221,16.896 C 3.815,16.56 3.211,16.614 2.874,17.022 2.537,17.429 2.594,18.031 3,18.369 l 10.849,8.995 c 0.407,0.336 1.009,0.28 1.346,-0.126 z"
       id="path8"
       inkscape:connector-curvature="0"
       style="fill:#000000" /><path
       d="m 95.78,17.471 -10.85,8.994 c -0.406,0.338 -0.462,0.939 -0.127,1.346 0.338,0.407 0.941,0.462 1.348,0.125 L 97,18.942 c 0.406,-0.336 0.463,-0.939 0.127,-1.347 -0.338,-0.406 -0.939,-0.461 -1.347,-0.124 z"
       id="path10"
       inkscape:connector-curvature="0"
       style="fill:#000000" /><path
       d="m 48.823,20.457 c 0.526,0.015 0.968,-0.401 0.982,-0.93 L 50.194,5.44 C 50.209,4.912 49.793,4.473 49.266,4.458 48.738,4.442 48.298,4.859 48.282,5.387 l -0.389,14.087 c -0.014,0.528 0.402,0.968 0.93,0.983 z"
       id="path12"
       inkscape:connector-curvature="0"
       style="fill:#000000" /></g></svg>